name rise37.2698peak67.6939fall79.5734.mot
datacolumns 19
datarows 49
range 18.741595 18.821601
endheader
time	ground_force1_vx	ground_force1_vy	ground_force1_vz	ground_force1_px	ground_force1_py	ground_force1_pz	ground_force2_vx	ground_force2_vy	ground_force2_vz	ground_force2_px	ground_force2_py	ground_force2_pz	ground_torque1_x	ground_torque1_y	ground_torque1_z	ground_torque2_x	ground_torque2_y	ground_torque2_z	
18.741595	60.871241	470.970170	17.998327	0.411855	0.000000	0.102693	-72.827876	416.722652	-2.746971	0.091278	0.000000	-0.065026	0.000000	3.330635	0.000000	0.000000	-10.627372	0.000000	
18.743264	61.939561	478.147668	19.029694	0.411411	0.000000	0.102751	-71.563850	406.561142	-2.127216	0.091275	0.000000	-0.064812	0.000000	3.949929	0.000000	0.000000	-10.348332	0.000000	
18.744928	62.952338	485.237308	20.046913	0.410882	0.000000	0.102808	-70.238792	396.372577	-1.524106	0.091260	0.000000	-0.064599	0.000000	4.562808	0.000000	0.000000	-10.063894	0.000000	
18.746594	63.908897	492.239745	21.048696	0.410268	0.000000	0.102865	-68.854555	386.166157	-0.938354	0.091228	0.000000	-0.064388	0.000000	5.168108	0.000000	0.000000	-9.774529	0.000000	
18.748263	64.808763	499.155848	22.033873	0.409569	0.000000	0.102923	-67.413168	375.950719	-0.370689	0.091175	0.000000	-0.064178	0.000000	5.764750	0.000000	0.000000	-9.480737	0.000000	
18.749929	65.651657	505.986673	23.001393	0.408789	0.000000	0.102980	-65.916855	365.734607	0.178132	0.091095	0.000000	-0.063970	0.000000	6.351745	0.000000	0.000000	-9.183045	0.000000	
18.751594	66.437497	512.733426	23.950327	0.407928	0.000000	0.103037	-64.368043	355.525579	0.707316	0.090985	0.000000	-0.063764	0.000000	6.928199	0.000000	0.000000	-8.882010	0.000000	
18.753285	67.166391	519.397444	24.879872	0.406989	0.000000	0.103095	-62.769380	345.330749	1.216035	0.090839	0.000000	-0.063561	0.000000	7.493313	0.000000	0.000000	-8.578221	0.000000	
18.754932	67.838631	525.980172	25.789345	0.405973	0.000000	0.103153	-61.123744	335.156599	1.703418	0.090652	0.000000	-0.063361	0.000000	8.046385	0.000000	0.000000	-8.272295	0.000000	
18.756609	68.454682	532.483144	26.678184	0.404883	0.000000	0.103211	-59.434252	325.009049	2.168573	0.090418	0.000000	-0.063165	0.000000	8.586812	0.000000	0.000000	-7.964876	0.000000	
18.758262	69.015173	538.907966	27.545942	0.403723	0.000000	0.103270	-57.704262	314.893621	2.610594	0.090131	0.000000	-0.062973	0.000000	9.114084	0.000000	0.000000	-7.656635	0.000000	
18.759934	69.520883	545.256305	28.392281	0.402494	0.000000	0.103329	-55.937365	304.815667	3.028598	0.089785	0.000000	-0.062785	0.000000	9.627786	0.000000	0.000000	-7.348261	0.000000	
18.761601	69.972736	551.529870	29.216969	0.401199	0.000000	0.103388	-54.137365	294.780691	3.421760	0.089373	0.000000	-0.062603	0.000000	10.127591	0.000000	0.000000	-7.040457	0.000000	
18.763267	70.371783	557.730399	30.019874	0.399843	0.000000	0.103448	-52.308248	284.794722	3.789355	0.088888	0.000000	-0.062425	0.000000	10.613260	0.000000	0.000000	-6.733930	0.000000	
18.764926	70.719196	563.859645	30.800959	0.398429	0.000000	0.103508	-50.454137	274.864733	4.130820	0.088322	0.000000	-0.062254	0.000000	11.084637	0.000000	0.000000	-6.429382	0.000000	
18.766593	71.016252	569.919359	31.560271	0.396960	0.000000	0.103569	-48.579234	264.999073	4.445802	0.087668	0.000000	-0.062090	0.000000	11.541645	0.000000	0.000000	-6.127495	0.000000	
18.768263	71.264332	575.911271	32.297946	0.395440	0.000000	0.103630	-46.687744	255.207862	4.734217	0.086917	0.000000	-0.061933	0.000000	11.984281	0.000000	0.000000	-5.828918	0.000000	
18.769933	71.464901	581.837078	33.014194	0.393873	0.000000	0.103691	-44.783801	245.503312	4.996299	0.086061	0.000000	-0.061784	0.000000	12.412616	0.000000	0.000000	-5.534257	0.000000	
18.771599	71.619508	587.698419	33.709299	0.392264	0.000000	0.103752	-42.871371	235.899911	5.232633	0.085088	0.000000	-0.061644	0.000000	12.826786	0.000000	0.000000	-5.244062	0.000000	
18.773261	71.729770	593.496862	34.383614	0.390617	0.000000	0.103814	-40.954174	226.414427	5.444175	0.083990	0.000000	-0.061513	0.000000	13.226991	0.000000	0.000000	-4.958813	0.000000	
18.774934	71.797372	599.233879	35.037555	0.388936	0.000000	0.103876	-39.035603	217.065682	5.632244	0.082756	0.000000	-0.061392	0.000000	13.613490	0.000000	0.000000	-4.678920	0.000000	
18.776597	71.824049	604.910836	35.671596	0.387225	0.000000	0.103938	-37.118659	207.874043	5.798477	0.081373	0.000000	-0.061282	0.000000	13.986597	0.000000	0.000000	-4.404715	0.000000	
18.778267	71.811587	610.528968	36.286265	0.385489	0.000000	0.104000	-35.205918	198.860635	5.944761	0.079829	0.000000	-0.061183	0.000000	14.346675	0.000000	0.000000	-4.136462	0.000000	
18.779931	71.761810	616.089367	36.882140	0.383733	0.000000	0.104062	-33.299525	190.046250	6.073119	0.078111	0.000000	-0.061098	0.000000	14.694133	0.000000	0.000000	-3.874361	0.000000	
18.781597	71.676573	621.592964	37.459841	0.381961	0.000000	0.104124	-31.401235	181.449989	6.185564	0.076205	0.000000	-0.061026	0.000000	15.029421	0.000000	0.000000	-3.618568	0.000000	
18.783259	71.557754	627.040519	38.020026	0.380178	0.000000	0.104185	-29.512498	173.087702	6.283920	0.074093	0.000000	-0.060969	0.000000	15.353022	0.000000	0.000000	-3.369217	0.000000	
18.784931	71.407248	632.432607	38.563388	0.378388	0.000000	0.104246	-27.634594	164.970308	6.369626	0.071761	0.000000	-0.060928	0.000000	15.665453	0.000000	0.000000	-3.126446	0.000000	
18.786601	71.226956	637.769609	39.090644	0.376596	0.000000	0.104307	-25.768823	157.102127	6.443528	0.069188	0.000000	-0.060904	0.000000	15.967254	0.000000	0.000000	-2.890427	0.000000	
18.788267	71.018777	643.051706	39.602533	0.374807	0.000000	0.104367	-23.916729	149.479371	6.505675	0.066355	0.000000	-0.060898	0.000000	16.258987	0.000000	0.000000	-2.661394	0.000000	
18.789926	70.784603	648.278870	40.099811	0.373024	0.000000	0.104426	-22.080368	142.088984	6.555151	0.063240	0.000000	-0.060912	0.000000	16.541228	0.000000	0.000000	-2.439672	0.000000	
18.791596	70.526310	653.450867	40.583240	0.371252	0.000000	0.104485	-20.262578	134.907990	6.589950	0.059817	0.000000	-0.060947	0.000000	16.814562	0.000000	0.000000	-2.225690	0.000000	
18.793264	70.245748	658.567247	41.053588	0.369495	0.000000	0.104542	-18.467251	127.903559	6.606925	0.056060	0.000000	-0.061006	0.000000	17.079581	0.000000	0.000000	-2.019994	0.000000	
18.794933	69.944737	663.627354	41.511619	0.367758	0.000000	0.104599	-16.699574	121.033912	6.601832	0.051939	0.000000	-0.061089	0.000000	17.336877	0.000000	0.000000	-1.823237	0.000000	
18.796600	69.625056	668.630321	41.958088	0.366043	0.000000	0.104654	-14.966201	114.250192	6.569476	0.047421	0.000000	-0.061199	0.000000	17.587036	0.000000	0.000000	-1.636157	0.000000	
18.798261	69.288442	673.575078	42.393737	0.364355	0.000000	0.104709	-13.275337	107.499337	6.503983	0.042466	0.000000	-0.061339	0.000000	17.830635	0.000000	0.000000	-1.459537	0.000000	
18.799933	68.936578	678.460355	42.819289	0.362697	0.000000	0.104761	-11.636710	100.727885	6.399187	0.037034	0.000000	-0.061510	0.000000	18.068240	0.000000	0.000000	-1.294144	0.000000	
18.801601	68.571091	683.284692	43.235441	0.361072	0.000000	0.104812	-10.061391	93.886588	6.249124	0.031074	0.000000	-0.061716	0.000000	18.300399	0.000000	0.000000	-1.140663	0.000000	
18.803266	68.193546	688.046443	43.642864	0.359483	0.000000	0.104862	-8.561469	86.935530	6.048611	0.024530	0.000000	-0.061959	0.000000	18.527638	0.000000	0.000000	-0.999617	0.000000	
18.804930	67.805441	692.743792	44.042191	0.357933	0.000000	0.104910	-7.149573	79.849391	5.793866	0.017340	0.000000	-0.062245	0.000000	18.750461	0.000000	0.000000	-0.871289	0.000000	
18.806608	67.408201	697.374758	44.434023	0.356425	0.000000	0.104956	-5.838251	72.622354	5.483123	0.009426	0.000000	-0.062576	0.000000	18.969345	0.000000	0.000000	-0.755655	0.000000	
18.808262	67.003179	701.937207	44.818915	0.354961	0.000000	0.105000	-4.639243	65.272088	5.117177	0.000701	0.000000	-0.062958	0.000000	19.184736	0.000000	0.000000	-0.652340	0.000000	
18.809941	66.591650	706.428868	45.197382	0.353543	0.000000	0.105042	-3.562693	57.842234	4.699779	-0.008940	0.000000	-0.063397	0.000000	19.397051	0.000000	0.000000	-0.560593	0.000000	
18.811592	66.174806	710.847346	45.569887	0.352173	0.000000	0.105081	-2.616376	50.402797	4.237837	-0.019625	0.000000	-0.063900	0.000000	19.606670	0.000000	0.000000	-0.479317	0.000000	
18.813263	65.753761	715.190133	45.936848	0.350851	0.000000	0.105119	-1.804999	43.048029	3.741331	-0.031506	0.000000	-0.064475	0.000000	19.813939	0.000000	0.000000	-0.407126	0.000000	
18.814925	65.329543	719.454625	46.298630	0.349581	0.000000	0.105154	-1.129676	35.891544	3.222925	-0.044774	0.000000	-0.065133	0.000000	20.019167	0.000000	0.000000	-0.342446	0.000000	
18.816600	64.903098	723.638139	46.655542	0.348361	0.000000	0.105186	-0.587636	29.058762	2.697258	-0.059664	0.000000	-0.065886	0.000000	20.222625	0.000000	0.000000	-0.283645	0.000000	
18.818267	64.475285	727.737927	47.007843	0.347194	0.000000	0.105217	-0.172228	22.677222	2.179967	0.000000	0.000000	0.000000	0.000000	20.424545	0.000000	0.000000	-0.050962	0.000000	
18.819932	64.046880	731.751192	47.355734	0.346080	0.000000	0.105244	0.126757	16.865795	1.686521	0.000000	0.000000	0.000000	0.000000	20.625119	0.000000	0.000000	-0.025058	0.000000	
18.821601	63.618574	735.675106	47.699359	0.345018	0.000000	0.105269	0.322488	11.724233	1.231045	0.000000	0.000000	0.000000	0.000000	20.824497	0.000000	0.000000	-0.005724	0.000000	
